<mxfile host="65bd71144e">
    <diagram id="OD5mrEtz2a-ZwAlbM0ZL" name="Page-1">
        <mxGraphModel dx="1757" dy="724" grid="1" gridSize="10" guides="1" tooltips="1" connect="1" arrows="1" fold="1" page="1" pageScale="1" pageWidth="827" pageHeight="1169" math="0" shadow="0">
            <root>
                <mxCell id="0"/>
                <mxCell id="1" parent="0"/>
                <mxCell id="20" value="" style="rounded=0;whiteSpace=wrap;html=1;" vertex="1" parent="1">
                    <mxGeometry x="20" y="330" width="890" height="370" as="geometry"/>
                </mxCell>
                <mxCell id="2" value="Data Selection&lt;br&gt;Agent" style="rounded=0;whiteSpace=wrap;html=1;" vertex="1" parent="1">
                    <mxGeometry x="550" y="420" width="120" height="60" as="geometry"/>
                </mxCell>
                <mxCell id="3" value="&lt;div&gt;Multi-lingual&lt;/div&gt;Dataset" style="shape=cylinder3;whiteSpace=wrap;html=1;boundedLbl=1;backgroundOutline=1;size=15;" vertex="1" parent="1">
                    <mxGeometry x="500" y="570" width="86" height="80" as="geometry"/>
                </mxCell>
                <mxCell id="4" value="Gap Analysis&lt;br&gt;Agent&lt;div&gt;(e.g., using LLM-BT techniques and metrics, etc)&lt;/div&gt;" style="rounded=0;whiteSpace=wrap;html=1;" vertex="1" parent="1">
                    <mxGeometry x="280" y="410" width="120" height="80" as="geometry"/>
                </mxCell>
                <mxCell id="5" value="LLM&lt;br&gt;&lt;div&gt;(Llama, Gemma or finetuned model)&lt;/div&gt;" style="rounded=0;whiteSpace=wrap;html=1;" vertex="1" parent="1">
                    <mxGeometry x="50" y="420" width="120" height="60" as="geometry"/>
                </mxCell>
                <mxCell id="6" value="English Dataset&lt;div&gt;(E.g., HotpotQA)&lt;/div&gt;" style="shape=cylinder3;whiteSpace=wrap;html=1;boundedLbl=1;backgroundOutline=1;size=15;" vertex="1" parent="1">
                    <mxGeometry x="50" y="570" width="120" height="80" as="geometry"/>
                </mxCell>
                <mxCell id="7" value="" style="endArrow=classic;html=1;exitX=0.5;exitY=0;exitDx=0;exitDy=0;exitPerimeter=0;entryX=0.5;entryY=1;entryDx=0;entryDy=0;" edge="1" parent="1" source="6" target="5">
                    <mxGeometry width="50" height="50" relative="1" as="geometry">
                        <mxPoint x="340" y="400" as="sourcePoint"/>
                        <mxPoint x="390" y="350" as="targetPoint"/>
                    </mxGeometry>
                </mxCell>
                <mxCell id="8" value="Select a random&lt;br&gt;list of prompts for&lt;br&gt;metric analysis" style="edgeLabel;html=1;align=center;verticalAlign=middle;resizable=0;points=[];" vertex="1" connectable="0" parent="7">
                    <mxGeometry x="-0.0667" y="1" relative="1" as="geometry">
                        <mxPoint as="offset"/>
                    </mxGeometry>
                </mxCell>
                <mxCell id="9" value="" style="endArrow=classic;html=1;exitX=1;exitY=0.5;exitDx=0;exitDy=0;" edge="1" parent="1" source="5" target="4">
                    <mxGeometry width="50" height="50" relative="1" as="geometry">
                        <mxPoint x="340" y="400" as="sourcePoint"/>
                        <mxPoint x="390" y="350" as="targetPoint"/>
                    </mxGeometry>
                </mxCell>
                <mxCell id="10" value="Multi-lingual&lt;div&gt;translation&lt;/div&gt;" style="edgeLabel;html=1;align=center;verticalAlign=middle;resizable=0;points=[];" vertex="1" connectable="0" parent="9">
                    <mxGeometry relative="1" as="geometry">
                        <mxPoint as="offset"/>
                    </mxGeometry>
                </mxCell>
                <mxCell id="11" value="&lt;div&gt;Fine-tuning&lt;/div&gt;Dataset" style="shape=cylinder3;whiteSpace=wrap;html=1;boundedLbl=1;backgroundOutline=1;size=15;" vertex="1" parent="1">
                    <mxGeometry x="640" y="570" width="86" height="80" as="geometry"/>
                </mxCell>
                <mxCell id="12" value="" style="endArrow=classic;html=1;exitX=1;exitY=0.5;exitDx=0;exitDy=0;entryX=0;entryY=0.5;entryDx=0;entryDy=0;" edge="1" parent="1" source="4" target="2">
                    <mxGeometry width="50" height="50" relative="1" as="geometry">
                        <mxPoint x="340" y="440" as="sourcePoint"/>
                        <mxPoint x="390" y="390" as="targetPoint"/>
                    </mxGeometry>
                </mxCell>
                <mxCell id="13" value="Give examples that&lt;br&gt;did not converge or&lt;br&gt;had bad metrics" style="edgeLabel;html=1;align=center;verticalAlign=middle;resizable=0;points=[];" vertex="1" connectable="0" parent="12">
                    <mxGeometry x="-0.125" y="1" relative="1" as="geometry">
                        <mxPoint as="offset"/>
                    </mxGeometry>
                </mxCell>
                <mxCell id="14" value="Retrieve examples&lt;div&gt;from weak results&lt;/div&gt;" style="endArrow=classic;html=1;entryX=0.25;entryY=1;entryDx=0;entryDy=0;exitX=0.5;exitY=0;exitDx=0;exitDy=0;exitPerimeter=0;" edge="1" parent="1" source="3" target="2">
                    <mxGeometry x="-0.2598" width="50" height="50" relative="1" as="geometry">
                        <mxPoint x="340" y="440" as="sourcePoint"/>
                        <mxPoint x="390" y="390" as="targetPoint"/>
                        <Array as="points">
                            <mxPoint x="543" y="530"/>
                            <mxPoint x="560" y="530"/>
                            <mxPoint x="580" y="530"/>
                        </Array>
                        <mxPoint as="offset"/>
                    </mxGeometry>
                </mxCell>
                <mxCell id="15" value="" style="endArrow=classic;html=1;exitX=0.75;exitY=1;exitDx=0;exitDy=0;entryX=0.5;entryY=0;entryDx=0;entryDy=0;entryPerimeter=0;" edge="1" parent="1" source="2" target="11">
                    <mxGeometry width="50" height="50" relative="1" as="geometry">
                        <mxPoint x="340" y="440" as="sourcePoint"/>
                        <mxPoint x="390" y="390" as="targetPoint"/>
                        <Array as="points">
                            <mxPoint x="640" y="530"/>
                            <mxPoint x="683" y="530"/>
                        </Array>
                    </mxGeometry>
                </mxCell>
                <mxCell id="16" value="Store agent selection&lt;br&gt;in smaller dataset" style="edgeLabel;html=1;align=center;verticalAlign=middle;resizable=0;points=[];" vertex="1" connectable="0" parent="15">
                    <mxGeometry x="0.0226" y="2" relative="1" as="geometry">
                        <mxPoint x="12" y="2" as="offset"/>
                    </mxGeometry>
                </mxCell>
                <mxCell id="17" value="Finetune Model" style="rounded=0;whiteSpace=wrap;html=1;" vertex="1" parent="1">
                    <mxGeometry x="750" y="420" width="120" height="60" as="geometry"/>
                </mxCell>
                <mxCell id="18" value="" style="endArrow=classic;html=1;exitX=1;exitY=0.5;exitDx=0;exitDy=0;" edge="1" parent="1" source="2" target="17">
                    <mxGeometry width="50" height="50" relative="1" as="geometry">
                        <mxPoint x="340" y="440" as="sourcePoint"/>
                        <mxPoint x="390" y="390" as="targetPoint"/>
                    </mxGeometry>
                </mxCell>
                <mxCell id="22" value="Enough data&lt;div&gt;selected&lt;/div&gt;" style="edgeLabel;html=1;align=center;verticalAlign=middle;resizable=0;points=[];" vertex="1" connectable="0" parent="18">
                    <mxGeometry x="-0.075" y="1" relative="1" as="geometry">
                        <mxPoint as="offset"/>
                    </mxGeometry>
                </mxCell>
                <mxCell id="19" value="" style="endArrow=classic;html=1;exitX=0.5;exitY=0;exitDx=0;exitDy=0;entryX=0.5;entryY=0;entryDx=0;entryDy=0;" edge="1" parent="1" source="17" target="5">
                    <mxGeometry width="50" height="50" relative="1" as="geometry">
                        <mxPoint x="340" y="440" as="sourcePoint"/>
                        <mxPoint x="390" y="390" as="targetPoint"/>
                        <Array as="points">
                            <mxPoint x="810" y="360"/>
                            <mxPoint x="110" y="360"/>
                        </Array>
                    </mxGeometry>
                </mxCell>
                <mxCell id="21" value="Finetuning loop" style="edgeLabel;html=1;align=center;verticalAlign=middle;resizable=0;points=[];" vertex="1" connectable="0" parent="19">
                    <mxGeometry y="-1" relative="1" as="geometry">
                        <mxPoint as="offset"/>
                    </mxGeometry>
                </mxCell>
                <mxCell id="23" value="" style="endArrow=classic;html=1;exitX=1;exitY=0.5;exitDx=0;exitDy=0;exitPerimeter=0;entryX=0.5;entryY=1;entryDx=0;entryDy=0;" edge="1" parent="1" source="11" target="17">
                    <mxGeometry width="50" height="50" relative="1" as="geometry">
                        <mxPoint x="740.7684615384617" y="560" as="sourcePoint"/>
                        <mxPoint x="879.23" y="680" as="targetPoint"/>
                        <Array as="points">
                            <mxPoint x="810" y="610"/>
                        </Array>
                    </mxGeometry>
                </mxCell>
                <mxCell id="24" value="Feed into model&lt;div&gt;for finetuning&lt;/div&gt;" style="edgeLabel;html=1;align=center;verticalAlign=middle;resizable=0;points=[];" vertex="1" connectable="0" parent="23">
                    <mxGeometry x="0.3738" y="2" relative="1" as="geometry">
                        <mxPoint as="offset"/>
                    </mxGeometry>
                </mxCell>
            </root>
        </mxGraphModel>
    </diagram>
</mxfile>